<svg width="121" height="79" viewBox="0 0 121 79" fill="none" xmlns="http://www.w3.org/2000/svg">
<path d="M22.7654 10.56C20.1734 10.56 17.9334 10.128 16.0454 9.26399L14.5094 17.04H23.7734C23.7734 18.736 23.3414 20.128 22.4774 21.216C21.6454 22.272 20.4614 22.8 18.9254 22.8C17.2614 22.8 15.6614 22.496 14.1254 21.888C13.8054 21.76 13.6294 21.68 13.5974 21.648L10.8614 36H0.3974L6.4934 4.31999H27.9014C27.9014 6.27199 27.4374 7.80799 26.5094 8.92799C25.6134 10.016 24.3654 10.56 22.7654 10.56Z" fill="#184838"/>
<path d="M45.8185 27.888C46.6185 28.432 47.0185 29.312 47.0185 30.528C47.0185 31.712 46.7145 32.688 46.1065 33.456C45.4985 34.224 44.6985 34.864 43.7065 35.376C41.6585 36.432 39.5305 36.96 37.3225 36.96C35.1145 36.96 33.3545 36.72 32.0425 36.24C30.7625 35.76 29.6905 35.072 28.8265 34.176C27.1305 32.48 26.2825 30.08 26.2825 26.976C26.2825 22.144 27.5945 18.256 30.2185 15.312C33.0345 12.144 36.8905 10.56 41.7865 10.56C44.8265 10.56 47.0985 11.2 48.6025 12.48C49.7225 13.44 50.2825 14.704 50.2825 16.272C50.2825 21.904 45.4185 24.72 35.6905 24.72C35.5625 25.552 35.4985 26.32 35.4985 27.024C35.4985 28.496 35.8185 29.52 36.4585 30.096C37.1305 30.64 38.0745 30.912 39.2905 30.912C40.5065 30.912 41.7545 30.64 43.0345 30.096C44.3465 29.52 45.2745 28.784 45.8185 27.888ZM36.0265 22.656C38.2985 22.656 40.0905 21.952 41.4025 20.544C42.7145 19.2 43.3705 17.456 43.3705 15.312C43.3705 14.576 43.2265 14.016 42.9385 13.632C42.6825 13.216 42.2825 13.008 41.7385 13.008C41.1945 13.008 40.6825 13.12 40.2025 13.344C39.7545 13.536 39.2905 13.984 38.8105 14.688C37.6265 16.288 36.6985 18.944 36.0265 22.656Z" fill="#184838"/>
<path d="M63.4454 33.36C62.4534 35.76 60.3734 36.96 57.2054 36.96C55.5734 36.96 54.2454 36.4 53.2214 35.28C52.3574 34.288 51.9254 33.296 51.9254 32.304C51.9254 29.712 52.5174 25.888 53.7014 20.832L55.4774 11.52L65.2214 10.56L62.2934 25.728C61.7494 28.096 61.4774 29.696 61.4774 30.528C61.4774 32.352 62.1334 33.296 63.4454 33.36ZM56.3414 4.84799C56.3414 3.59999 56.8534 2.63999 57.8774 1.96799C58.9334 1.29599 60.2134 0.959991 61.7174 0.959991C63.2214 0.959991 64.4214 1.29599 65.3174 1.96799C66.2454 2.63999 66.7094 3.59999 66.7094 4.84799C66.7094 6.09599 66.1974 7.03999 65.1734 7.67999C64.1814 8.31999 62.9334 8.63999 61.4294 8.63999C59.9254 8.63999 58.6934 8.31999 57.7334 7.67999C56.8054 7.03999 56.3414 6.09599 56.3414 4.84799Z" fill="#184838"/>
<path d="M82.5588 22.512C83.7108 20.464 84.2868 18.4 84.2868 16.32C84.2868 14.944 83.7908 14.256 82.7988 14.256C82.0308 14.256 81.2468 14.912 80.4468 16.224C79.6148 17.536 79.0708 19.04 78.8148 20.736L76.3188 36L66.3828 36.96L71.2788 11.52L79.1988 10.56L78.3348 15.408C79.9028 12.176 82.4468 10.56 85.9668 10.56C87.8228 10.56 89.2468 11.04 90.2388 12C91.2628 12.96 91.7748 14.432 91.7748 16.416C91.7748 18.368 91.1188 19.968 89.8068 21.216C88.5268 22.464 86.7828 23.088 84.5748 23.088C83.6148 23.088 82.9428 22.896 82.5588 22.512Z" fill="#184838"/>
<path d="M94.63 34.56C93.894 33.728 93.35 32.656 92.998 31.344C92.678 30.032 92.518 28.304 92.518 26.16C92.518 24.016 92.886 21.968 93.622 20.016C94.358 18.064 95.398 16.384 96.742 14.976C99.494 12.032 103.142 10.56 107.686 10.56C109.318 10.56 110.726 10.832 111.91 11.376L120.118 10.56L116.566 29.28C116.47 29.664 116.422 30.208 116.422 30.912C116.422 31.616 116.63 32.192 117.046 32.64C117.494 33.088 118.038 33.344 118.678 33.408C118.358 34.496 117.606 35.36 116.422 36C115.27 36.64 114.038 36.96 112.726 36.96C111.414 36.96 110.31 36.704 109.414 36.192C108.55 35.712 107.99 35.056 107.734 34.224C107.222 35.024 106.422 35.68 105.334 36.192C104.246 36.704 102.966 36.96 101.494 36.96C100.054 36.96 98.742 36.768 97.558 36.384C96.374 36 95.398 35.392 94.63 34.56ZM104.758 15.072C104.406 15.648 104.07 16.432 103.75 17.424C103.43 18.384 102.998 20.176 102.454 22.8C101.942 25.392 101.686 27.616 101.686 29.472C101.686 31.328 101.83 32.528 102.118 33.072C102.406 33.616 102.806 33.888 103.318 33.888C104.342 33.888 105.222 33.408 105.958 32.448C106.726 31.456 107.254 30.096 107.542 28.368L110.086 14.304C109.414 13.728 108.678 13.44 107.878 13.44C107.11 13.44 106.486 13.568 106.006 13.824C105.558 14.08 105.142 14.496 104.758 15.072Z" fill="#184838"/>
<path d="M23.0285 70.608C23.6365 71.376 23.9405 72.512 23.9405 74.016C23.9405 75.488 23.3645 76.688 22.2125 77.616C21.0925 78.512 19.5405 78.96 17.5565 78.96C16.4045 78.96 14.9325 78.832 13.1405 78.576C9.62046 78.032 7.34846 77.76 6.32446 77.76C5.33246 77.76 4.62846 77.792 4.21246 77.856C3.79646 77.888 3.25246 77.936 2.58046 78L8.38846 46.32H18.9005L14.1005 72.72C14.5165 72.784 14.9165 72.816 15.3005 72.816H16.5005C19.1885 72.816 21.3645 72.08 23.0285 70.608Z" fill="#184838"/>
<path d="M38.672 75.36C37.68 77.76 35.6 78.96 32.432 78.96C30.8 78.96 29.472 78.4 28.448 77.28C27.584 76.288 27.152 75.296 27.152 74.304C27.152 71.712 27.744 67.888 28.928 62.832L30.704 53.52L40.448 52.56L37.52 67.728C36.976 70.096 36.704 71.696 36.704 72.528C36.704 74.352 37.36 75.296 38.672 75.36ZM31.568 46.848C31.568 45.6 32.08 44.64 33.104 43.968C34.16 43.296 35.44 42.96 36.944 42.96C38.448 42.96 39.648 43.296 40.544 43.968C41.472 44.64 41.936 45.6 41.936 46.848C41.936 48.096 41.424 49.04 40.4 49.68C39.408 50.32 38.16 50.64 36.656 50.64C35.152 50.64 33.92 50.32 32.96 49.68C32.032 49.04 31.568 48.096 31.568 46.848Z" fill="#184838"/>
<path d="M60.1853 54.336C61.2413 53.152 62.6813 52.56 64.5053 52.56C65.6253 52.56 66.6173 52.864 67.4813 53.472C68.3453 54.08 68.7773 54.96 68.7773 56.112C68.7773 57.232 68.6013 58.4 68.2493 59.616C67.8973 60.832 67.4493 62.064 66.9053 63.312C65.8173 65.744 64.5213 67.968 63.0173 69.984C60.9053 72.896 58.8253 75.12 56.7773 76.656C54.7613 78.192 52.6493 78.96 50.4413 78.96C48.6493 78.96 47.2093 78.752 46.1213 78.336C45.9293 71.616 45.7053 67.056 45.4493 64.656C45.2253 62.256 45.0173 60.4 44.8253 59.088C44.5053 56.528 43.8653 54.944 42.9053 54.336C43.6413 53.696 44.3613 53.248 45.0653 52.992C45.8013 52.704 46.9053 52.56 48.3773 52.56C49.8813 52.56 51.1613 53.152 52.2173 54.336C53.2733 55.488 53.8973 57.104 54.0893 59.184C54.3133 61.232 54.4253 63.504 54.4253 66C54.4253 68.496 54.3293 71.248 54.1373 74.256C55.1293 73.552 56.1533 72.128 57.2093 69.984C58.6493 67.008 59.6253 63.728 60.1373 60.144C60.2973 59.056 60.3773 57.936 60.3773 56.784C60.3773 55.632 60.3133 54.816 60.1853 54.336Z" fill="#184838"/>
<path d="M85.1135 64.512C86.2655 62.464 86.8415 60.4 86.8415 58.32C86.8415 56.944 86.3455 56.256 85.3535 56.256C84.5855 56.256 83.8015 56.912 83.0015 58.224C82.1695 59.536 81.6255 61.04 81.3695 62.736L78.8735 78L68.9375 78.96L73.8335 53.52L81.7535 52.56L80.8895 57.408C82.4575 54.176 85.0015 52.56 88.5215 52.56C90.3775 52.56 91.8015 53.04 92.7935 54C93.8175 54.96 94.3295 56.432 94.3295 58.416C94.3295 60.368 93.6735 61.968 92.3615 63.216C91.0815 64.464 89.3375 65.088 87.1295 65.088C86.1695 65.088 85.4975 64.896 85.1135 64.512Z" fill="#184838"/>
<path d="M114.561 69.888C115.361 70.432 115.761 71.312 115.761 72.528C115.761 73.712 115.457 74.688 114.849 75.456C114.241 76.224 113.441 76.864 112.449 77.376C110.401 78.432 108.273 78.96 106.065 78.96C103.857 78.96 102.097 78.72 100.785 78.24C99.5047 77.76 98.4327 77.072 97.5687 76.176C95.8727 74.48 95.0247 72.08 95.0247 68.976C95.0247 64.144 96.3367 60.256 98.9607 57.312C101.777 54.144 105.633 52.56 110.529 52.56C113.569 52.56 115.841 53.2 117.345 54.48C118.465 55.44 119.025 56.704 119.025 58.272C119.025 63.904 114.161 66.72 104.433 66.72C104.305 67.552 104.241 68.32 104.241 69.024C104.241 70.496 104.561 71.52 105.201 72.096C105.873 72.64 106.817 72.912 108.033 72.912C109.249 72.912 110.497 72.64 111.777 72.096C113.089 71.52 114.017 70.784 114.561 69.888ZM104.769 64.656C107.041 64.656 108.833 63.952 110.145 62.544C111.457 61.2 112.113 59.456 112.113 57.312C112.113 56.576 111.969 56.016 111.681 55.632C111.425 55.216 111.025 55.008 110.481 55.008C109.937 55.008 109.425 55.12 108.945 55.344C108.497 55.536 108.033 55.984 107.553 56.688C106.369 58.288 105.441 60.944 104.769 64.656Z" fill="#184838"/>
</svg>
